<svg width="28" height="28" viewBox="0 0 28 28" fill="none" xmlns="http://www.w3.org/2000/svg">
<path d="M14.0709 4.8984C13.943 4.7705 13.7357 4.7705 13.6078 4.8984L5.05403 13.4521C4.98204 13.5241 4.92492 13.6095 4.88596 13.7036C4.84699 13.7976 4.82693 13.8984 4.82693 14.0002C4.82693 14.1019 4.84699 14.2027 4.88596 14.2968C4.92492 14.3908 4.98204 14.4762 5.05403 14.5482L13.6078 23.1019C13.7357 23.2298 13.943 23.2298 14.0709 23.1019L14.7039 22.4688C14.8317 22.3409 14.8317 22.1336 14.7038 22.0057L7.47343 14.7753L22.8456 14.7753C23.0265 14.7753 23.1731 14.6287 23.1731 14.4478V13.5525C23.1731 13.3716 23.0265 13.225 22.8456 13.225L7.47343 13.225L14.7038 5.99442C14.8317 5.86653 14.8317 5.65918 14.7038 5.53129L14.0709 4.8984Z" fill="#161616"/>
</svg>
