<svg width="19" height="19" viewBox="0 0 19 19" fill="none" xmlns="http://www.w3.org/2000/svg">
<path d="M9.10221 0.0959053C9.2301 -0.0319862 9.43745 -0.0319862 9.56534 0.0959053L18.1191 8.64966C18.1911 8.72161 18.2482 8.80704 18.2872 8.90107C18.3261 8.9951 18.3462 9.09589 18.3462 9.19767C18.3462 9.29946 18.3261 9.40024 18.2872 9.49427C18.2482 9.58831 18.1911 9.67374 18.1191 9.74569L9.56536 18.2994C9.43746 18.4273 9.2301 18.4273 9.10221 18.2994L8.46927 17.6663C8.3414 17.5385 8.34141 17.3311 8.46929 17.2032L15.6997 9.97283L0.327536 9.97283C0.146669 9.97283 4.95911e-05 9.82621 4.95911e-05 9.64534V8.75C4.95911e-05 8.56913 0.146669 8.42251 0.327536 8.42251L15.6997 8.42251L8.46931 1.19193C8.34142 1.06404 8.34142 0.856691 8.46931 0.728802L9.10221 0.0959053Z" fill="#161616"/>
</svg>
