<svg width="176" height="37" viewBox="0 0 176 37" fill="none" xmlns="http://www.w3.org/2000/svg">
<g clip-path="url(#clip0_14190_2449)">
<g clip-path="url(#clip1_14190_2449)">
<mask id="mask0_14190_2449" style="mask-type:luminance" maskUnits="userSpaceOnUse" x="0" y="0" width="36" height="37">
<path d="M36 0.52002H0V36.52H36V0.52002Z" fill="white"/>
</mask>
<g mask="url(#mask0_14190_2449)">
<path d="M27.75 35.02H8.25C7.00688 35.02 6 34.0131 6 32.77V4.27002C6 3.02689 7.00688 2.02002 8.25 2.02002H21.75L30 10.27V32.77C30 34.0131 28.9931 35.02 27.75 35.02Z" fill="#FFBA00"/>
<path d="M21.75 2.02002L30 10.27H21.75V2.02002Z" fill="#FF9500"/>
<path d="M23.625 14.77H12.375H10.5V16.645V23.02V24.895H12.375H23.625H25.5V23.02V16.645V14.77H23.625ZM23.625 23.02H12.375V16.645H23.625V23.02Z" fill="white"/>
</g>
<path d="M60.742 18.782C60.742 20.982 60.0893 22.7347 58.784 24.04C57.3173 25.5947 55.3887 26.372 52.998 26.372C50.71 26.372 48.774 25.58 47.19 23.996C45.606 22.412 44.814 20.4614 44.814 18.144C44.814 15.8267 45.606 13.876 47.19 12.292C48.774 10.708 50.71 9.91602 52.998 9.91602C54.1567 9.91602 55.2493 10.1214 56.276 10.532C57.3027 10.9427 58.146 11.522 58.806 12.27L57.354 13.722C56.87 13.1354 56.2393 12.6807 55.462 12.358C54.6993 12.0207 53.878 11.852 52.998 11.852C51.282 11.852 49.83 12.446 48.642 13.634C47.4687 14.8367 46.882 16.34 46.882 18.144C46.882 19.948 47.4687 21.4514 48.642 22.654C49.83 23.842 51.282 24.436 52.998 24.436C54.5673 24.436 55.8727 23.996 56.914 23.116C57.9553 22.236 58.5567 21.026 58.718 19.486H52.998V17.594H60.632C60.7053 18.0047 60.742 18.4007 60.742 18.782ZM62.2076 20.63C62.2076 18.9727 62.7282 17.6014 63.7696 16.516C64.8256 15.4307 66.1529 14.888 67.7516 14.888C69.3503 14.888 70.6703 15.4307 71.7116 16.516C72.7676 17.6014 73.2956 18.9727 73.2956 20.63C73.2956 22.302 72.7676 23.6734 71.7116 24.744C70.6703 25.8294 69.3503 26.372 67.7516 26.372C66.1529 26.372 64.8256 25.8294 63.7696 24.744C62.7282 23.6587 62.2076 22.2874 62.2076 20.63ZM64.2316 20.63C64.2316 21.7887 64.5689 22.7274 65.2436 23.446C65.9183 24.1647 66.7543 24.524 67.7516 24.524C68.7489 24.524 69.5849 24.1647 70.2596 23.446C70.9343 22.7274 71.2716 21.7887 71.2716 20.63C71.2716 19.486 70.9343 18.5547 70.2596 17.836C69.5703 17.1027 68.7342 16.736 67.7516 16.736C66.7689 16.736 65.9329 17.1027 65.2436 17.836C64.5689 18.5547 64.2316 19.486 64.2316 20.63ZM74.5999 20.63C74.5999 18.9727 75.1206 17.6014 76.1619 16.516C77.2179 15.4307 78.5453 14.888 80.1439 14.888C81.7426 14.888 83.0626 15.4307 84.1039 16.516C85.1599 17.6014 85.6879 18.9727 85.6879 20.63C85.6879 22.302 85.1599 23.6734 84.1039 24.744C83.0626 25.8294 81.7426 26.372 80.1439 26.372C78.5453 26.372 77.2179 25.8294 76.1619 24.744C75.1206 23.6587 74.5999 22.2874 74.5999 20.63ZM76.6239 20.63C76.6239 21.7887 76.9613 22.7274 77.6359 23.446C78.3106 24.1647 79.1466 24.524 80.1439 24.524C81.1413 24.524 81.9773 24.1647 82.6519 23.446C83.3266 22.7274 83.6639 21.7887 83.6639 20.63C83.6639 19.486 83.3266 18.5547 82.6519 17.836C81.9626 17.1027 81.1266 16.736 80.1439 16.736C79.1613 16.736 78.3253 17.1027 77.6359 17.836C76.9613 18.5547 76.6239 19.486 76.6239 20.63ZM92.4483 24.524C93.4456 24.524 94.2596 24.1647 94.8903 23.446C95.5503 22.7274 95.8803 21.7887 95.8803 20.63C95.8803 19.5007 95.5503 18.5694 94.8903 17.836C94.245 17.1027 93.431 16.736 92.4483 16.736C91.4803 16.736 90.6663 17.1027 90.0063 17.836C89.3463 18.5694 89.0163 19.5007 89.0163 20.63C89.0163 21.774 89.3463 22.7054 90.0063 23.424C90.6663 24.1574 91.4803 24.524 92.4483 24.524ZM92.3823 31.124C91.781 31.124 91.2163 31.0434 90.6883 30.882C90.1603 30.7354 89.6763 30.5227 89.2363 30.244C88.811 29.9654 88.4443 29.6354 88.1363 29.254C87.8283 28.8727 87.5936 28.4474 87.4323 27.978L89.3463 27.186C89.5663 27.8167 89.9476 28.3227 90.4903 28.704C91.033 29.0854 91.6636 29.276 92.3823 29.276C93.4823 29.276 94.3403 28.946 94.9563 28.286C95.5723 27.626 95.8803 26.7167 95.8803 25.558V24.524H95.7923C95.411 25.096 94.8903 25.5507 94.2303 25.888C93.585 26.2107 92.881 26.372 92.1183 26.372C90.7103 26.372 89.5003 25.822 88.4883 24.722C87.491 23.5927 86.9923 22.2287 86.9923 20.63C86.9923 19.0314 87.491 17.6747 88.4883 16.56C89.5003 15.4454 90.7103 14.888 92.1183 14.888C92.881 14.888 93.585 15.0567 94.2303 15.394C94.8903 15.7167 95.411 16.164 95.7923 16.736H95.8803V15.24H97.8163V25.558C97.8163 27.2887 97.325 28.6454 96.3423 29.628C95.345 30.6254 94.025 31.124 92.3823 31.124ZM102.39 10.268V26.02H100.366V10.268H102.39ZM109.671 26.372C108.087 26.372 106.781 25.8294 105.755 24.744C104.728 23.6587 104.215 22.2874 104.215 20.63C104.215 18.9874 104.713 17.6234 105.711 16.538C106.708 15.438 107.984 14.888 109.539 14.888C111.137 14.888 112.406 15.4087 113.345 16.45C114.298 17.4767 114.775 18.9214 114.775 20.784L114.753 21.004H106.283C106.312 22.06 106.664 22.9107 107.339 23.556C108.013 24.2014 108.82 24.524 109.759 24.524C111.049 24.524 112.061 23.8787 112.795 22.588L114.599 23.468C114.115 24.3774 113.44 25.0887 112.575 25.602C111.724 26.1154 110.756 26.372 109.671 26.372ZM106.437 19.332H112.619C112.56 18.584 112.252 17.968 111.695 17.484C111.152 16.9854 110.419 16.736 109.495 16.736C108.732 16.736 108.072 16.9707 107.515 17.44C106.972 17.9094 106.613 18.54 106.437 19.332ZM131.033 21.818C131.033 23.1967 130.527 24.304 129.515 25.14C128.488 25.9614 127.242 26.372 125.775 26.372C124.47 26.372 123.318 25.9907 122.321 25.228C121.324 24.4654 120.634 23.424 120.253 22.104L122.189 21.312C122.321 21.7814 122.504 22.2067 122.739 22.588C122.974 22.9694 123.245 23.2994 123.553 23.578C123.876 23.842 124.228 24.0547 124.609 24.216C124.99 24.3627 125.394 24.436 125.819 24.436C126.743 24.436 127.498 24.2014 128.085 23.732C128.672 23.248 128.965 22.61 128.965 21.818C128.965 21.158 128.723 20.5934 128.239 20.124C127.784 19.6694 126.934 19.2294 125.687 18.804C124.426 18.3494 123.641 18.0414 123.333 17.88C121.661 17.0294 120.825 15.7754 120.825 14.118C120.825 12.9594 121.287 11.9694 122.211 11.148C123.15 10.3267 124.301 9.91602 125.665 9.91602C126.868 9.91602 127.909 10.224 128.789 10.84C129.669 11.4414 130.256 12.1967 130.549 13.106L128.657 13.898C128.481 13.3114 128.129 12.8274 127.601 12.446C127.088 12.05 126.457 11.852 125.709 11.852C124.917 11.852 124.25 12.072 123.707 12.512C123.164 12.9227 122.893 13.458 122.893 14.118C122.893 14.6607 123.106 15.13 123.531 15.526C124 15.922 125.02 16.3914 126.589 16.934C128.188 17.4767 129.324 18.144 129.999 18.936C130.688 19.7134 131.033 20.674 131.033 21.818ZM135.223 10.268V26.02H133.199V10.268H135.223ZM140.389 11.522C140.389 11.918 140.25 12.2554 139.971 12.534C139.692 12.8127 139.355 12.952 138.959 12.952C138.563 12.952 138.226 12.8127 137.947 12.534C137.668 12.2554 137.529 11.918 137.529 11.522C137.529 11.126 137.668 10.7887 137.947 10.51C138.226 10.2314 138.563 10.092 138.959 10.092C139.355 10.092 139.692 10.2314 139.971 10.51C140.25 10.7887 140.389 11.126 140.389 11.522ZM139.971 15.24V26.02H137.947V15.24H139.971ZM147.419 24.524C148.417 24.524 149.231 24.1647 149.861 23.446C150.521 22.7274 150.851 21.7887 150.851 20.63C150.851 19.5007 150.521 18.5694 149.861 17.836C149.216 17.1027 148.402 16.736 147.419 16.736C146.451 16.736 145.637 17.1027 144.977 17.836C144.317 18.5694 143.987 19.5007 143.987 20.63C143.987 21.774 144.317 22.7054 144.977 23.424C145.637 24.1574 146.451 24.524 147.419 24.524ZM147.089 26.372C145.681 26.372 144.471 25.8147 143.459 24.7C142.462 23.5707 141.963 22.214 141.963 20.63C141.963 19.046 142.462 17.6894 143.459 16.56C144.471 15.4454 145.681 14.888 147.089 14.888C147.881 14.888 148.6 15.0567 149.245 15.394C149.905 15.7314 150.411 16.1787 150.763 16.736H150.851L150.763 15.24V10.268H152.787V26.02H150.851V24.524H150.763C150.411 25.0814 149.905 25.5287 149.245 25.866C148.6 26.2034 147.881 26.372 147.089 26.372ZM160.07 26.372C158.486 26.372 157.18 25.8294 156.154 24.744C155.127 23.6587 154.614 22.2874 154.614 20.63C154.614 18.9874 155.112 17.6234 156.11 16.538C157.107 15.438 158.383 14.888 159.938 14.888C161.536 14.888 162.805 15.4087 163.744 16.45C164.697 17.4767 165.174 18.9214 165.174 20.784L165.152 21.004H156.682C156.711 22.06 157.063 22.9107 157.738 23.556C158.412 24.2014 159.219 24.524 160.158 24.524C161.448 24.524 162.46 23.8787 163.194 22.588L164.998 23.468C164.514 24.3774 163.839 25.0887 162.974 25.602C162.123 26.1154 161.155 26.372 160.07 26.372ZM156.836 19.332H163.018C162.959 18.584 162.651 17.968 162.094 17.484C161.551 16.9854 160.818 16.736 159.894 16.736C159.131 16.736 158.471 16.9707 157.914 17.44C157.371 17.9094 157.012 18.54 156.836 19.332ZM175.464 23.028C175.464 23.9667 175.053 24.7587 174.232 25.404C173.41 26.0494 172.376 26.372 171.13 26.372C170.044 26.372 169.091 26.0934 168.27 25.536C167.448 24.964 166.862 24.216 166.51 23.292L168.314 22.522C168.578 23.1674 168.959 23.6734 169.458 24.04C169.971 24.392 170.528 24.568 171.13 24.568C171.775 24.568 172.31 24.4287 172.736 24.15C173.176 23.8714 173.396 23.5414 173.396 23.16C173.396 22.4707 172.868 21.9647 171.812 21.642L169.964 21.18C167.866 20.652 166.818 19.64 166.818 18.144C166.818 17.1614 167.214 16.3767 168.006 15.79C168.812 15.1887 169.839 14.888 171.086 14.888C172.039 14.888 172.897 15.1154 173.66 15.57C174.437 16.0247 174.98 16.6334 175.288 17.396L173.484 18.144C173.278 17.6894 172.941 17.3374 172.472 17.088C172.017 16.824 171.504 16.692 170.932 16.692C170.404 16.692 169.927 16.824 169.502 17.088C169.091 17.352 168.886 17.6747 168.886 18.056C168.886 18.672 169.465 19.112 170.624 19.376L172.252 19.794C174.393 20.322 175.464 21.4 175.464 23.028Z" fill="#5F6368"/>
</g>
</g>
<defs>
<clipPath id="clip0_14190_2449">
<rect width="176" height="37" fill="white"/>
</clipPath>
<clipPath id="clip1_14190_2449">
<rect width="176" height="37" fill="white"/>
</clipPath>
</defs>
</svg>
