<svg width="16" height="16" viewBox="0 0 16 16" fill="none" xmlns="http://www.w3.org/2000/svg">
<path d="M7.55601 13.6825L6.85574 11.6167C6.469 10.4758 5.56874 9.54605 4.38323 9.14421L2.31747 8.44397C1.89414 8.30046 1.89421 7.69946 2.31747 7.55597L4.38323 6.85571C5.52412 6.46899 6.45388 5.56869 6.85574 4.38319L7.55601 2.31746C7.69951 1.89413 8.30052 1.89423 8.444 2.31746L9.14427 4.38319C9.53101 5.52408 10.4313 6.45385 11.6168 6.85571L13.6825 7.55597C14.1059 7.69948 14.1058 8.30049 13.6825 8.44397L11.6168 9.14421C10.4759 9.53093 9.54613 10.4312 9.14427 11.6167L8.444 13.6825C8.3005 14.1058 7.69947 14.1057 7.55601 13.6825Z" fill="#EFF2F5"/>
</svg>
