<svg width="96" height="26" viewBox="0 0 96 26" fill="none" xmlns="http://www.w3.org/2000/svg">
<g clip-path="url(#clip0_14253_2584)">
<path d="M24.4538 6.21398L16.0815 7.27713C15.484 7.353 15.0361 7.86134 15.0361 8.46364V17.0433C15.0361 17.6421 15.4789 18.1486 16.0723 18.2286L24.4446 19.3582C25.1622 19.455 25.8005 18.897 25.8005 18.1729V7.4005C25.8005 6.68014 25.1684 6.12323 24.4538 6.21398Z" fill="#161616"/>
<path d="M19.1924 0.300102L0.995449 3.39585C0.420557 3.49365 0 3.9918 0 4.57495V21.5088C0 22.0974 0.428303 22.5986 1.00976 22.6902L19.2067 25.5595C19.9326 25.6739 20.589 25.1129 20.589 24.378V20.6942C20.589 20.523 20.4624 20.3782 20.2927 20.3555L14.6207 19.5946C14.0269 19.5149 13.5836 19.0083 13.5836 18.4092V12.92V7.39359C13.5836 6.8107 14.0038 6.3127 14.5784 6.21461L20.3048 5.23692C20.469 5.2089 20.589 5.06661 20.589 4.90007V1.4792C20.589 0.738493 19.9226 0.175874 19.1924 0.300102Z" fill="#1252D3"/>
<path d="M6.97391 13.734V12.6257H10.6414C10.6835 12.8516 10.7037 13.0811 10.7019 13.3109C10.7019 14.1169 10.4802 15.1446 9.75477 15.8499C9.04948 16.5955 8.16283 16.9784 6.95376 16.9784C4.75729 16.9784 2.90338 15.1849 2.90338 12.9884C2.90338 10.792 4.75729 8.97837 6.95376 8.97837C8.18298 8.97837 9.04948 9.46199 9.71446 10.0867L8.92857 10.8524C8.51921 10.4617 8.00319 10.2012 7.44578 10.1038C6.88836 10.0063 6.31456 10.0763 5.79692 10.3049C5.27929 10.5336 4.84106 10.9105 4.53765 11.3882C4.23423 11.8658 4.07925 12.4227 4.0923 12.9884C4.0923 14.6005 5.36182 15.8902 6.95376 15.8902C8.00162 15.8902 8.60615 15.467 8.98902 15.0842C9.29129 14.7819 9.4928 14.3386 9.57341 13.734H6.97391Z" fill="white"/>
<path d="M21.4546 14.8262H20.6444L20.4158 14.0905H19.0936L18.85 14.8262H18.0647L19.3421 11.2474H20.1871L21.4546 14.8262ZM19.7597 12.0675L19.2974 13.4742H20.207L19.7597 12.0675ZM21.8457 11.2474H22.5913V14.8262H21.8457V11.2474Z" fill="white"/>
<mask id="mask0_14253_2584" style="mask-type:luminance" maskUnits="userSpaceOnUse" x="31" y="5" width="157" height="20">
<path d="M31.1973 5H187.291V25H31.1973V5Z" fill="white"/>
</mask>
<g mask="url(#mask0_14253_2584)">
<path d="M39.0877 14.2186V12.0702H46.1969C46.2785 12.5081 46.3177 12.9528 46.3141 13.3983C46.3141 14.9607 45.8845 16.9529 44.4782 18.32C43.1111 19.7653 41.3924 20.5075 39.0487 20.5075C34.7909 20.5075 31.1973 17.031 31.1973 12.7733C31.1973 8.51555 34.7909 5 39.0487 5C41.4314 5 43.1111 5.93748 44.4001 7.14839L42.8767 8.63274C42.0832 7.87542 41.0829 7.37039 40.0024 7.18149C38.9219 6.99259 37.8096 7.1283 36.8062 7.57147C35.8028 8.01464 34.9533 8.74536 34.3652 9.67126C33.777 10.5972 33.4766 11.6767 33.5019 12.7733C33.5019 15.8982 35.9628 18.3982 39.0487 18.3982C41.0799 18.3982 42.2517 17.5779 42.9939 16.8357C43.5798 16.2498 43.9704 15.3904 44.1267 14.2186H39.0877Z" fill="#1F1F1F"/>
<path d="M57.1347 15.5077C57.1347 18.3983 54.8692 20.5076 52.0958 20.5076C49.3224 20.5076 47.0959 18.3983 47.0959 15.5077C47.0959 12.6171 49.3615 10.5078 52.0958 10.5078C54.8301 10.5078 57.1347 12.6171 57.1347 15.5077ZM54.9082 15.5077C54.9082 13.7109 53.6192 12.5 52.0958 12.5C50.5724 12.5 49.2833 13.7109 49.2833 15.5077C49.2833 17.3045 50.6114 18.5545 52.0958 18.5545C53.5801 18.5545 54.9082 17.3045 54.9082 15.5077Z" fill="#1F1F1F"/>
<path d="M68.0723 15.5077C68.0723 18.3983 65.8067 20.5076 63.0333 20.5076C60.2599 20.5076 58.0334 18.3983 58.0334 15.5077C58.0334 12.6171 60.299 10.5078 63.0333 10.5078C65.7676 10.5078 68.0723 12.6171 68.0723 15.5077ZM65.8458 15.5077C65.8458 13.7109 64.5567 12.5 63.0333 12.5C61.5099 12.5 60.2209 13.7109 60.2209 15.5077C60.2209 17.3045 61.549 18.5545 63.0333 18.5545C64.5177 18.5545 65.8458 17.3045 65.8458 15.5077Z" fill="#1F1F1F"/>
<path d="M78.541 10.8203V19.8045C78.541 23.4763 76.3536 24.9997 73.7755 24.9997C71.3537 24.9997 69.9084 23.3591 69.3615 22.031L71.2756 21.2498C71.6271 22.0701 72.4474 23.0466 73.7755 23.0466C75.4552 23.0466 76.4708 21.9919 76.4708 20.117V19.3748H76.3926C76.0602 19.7471 75.6499 20.0416 75.1908 20.2374C74.7318 20.4331 74.2352 20.5254 73.7364 20.5076C71.2756 20.5076 68.9709 18.3201 68.9709 15.5468C68.9709 12.7343 71.2756 10.5078 73.7364 10.5078C74.9474 10.5078 75.8848 11.0547 76.3926 11.6406H76.4708V10.8203H78.541ZM76.627 15.5468C76.627 13.789 75.4552 12.5 73.9317 12.5C72.4474 12.5 71.1584 13.789 71.1584 15.5468C71.1584 17.2655 72.4474 18.5545 73.9317 18.5545C75.4552 18.5545 76.627 17.2655 76.627 15.5468Z" fill="#1F1F1F"/>
<path d="M80.0647 5.58594H82.2521V20.2341H80.0647V5.58594Z" fill="#1F1F1F"/>
<path d="M90.7286 17.1483L92.4473 18.3201C91.9004 19.1014 90.5723 20.5076 88.2677 20.5076C85.4162 20.5076 83.3069 18.3201 83.3069 15.5077C83.3069 12.539 85.4552 10.5078 88.0333 10.5078C90.6114 10.5078 91.9004 12.5781 92.291 13.7109L92.5254 14.2577L85.8459 17.0311C86.3537 18.0467 87.1349 18.5545 88.2677 18.5545C89.4005 18.5545 90.1426 18.0077 90.7286 17.1483ZM85.4943 15.3515L89.9473 13.5156C89.713 12.8906 88.9708 12.4609 88.1114 12.4609C86.9787 12.4609 85.4162 13.4374 85.4943 15.3515Z" fill="#1F1F1F"/>
</g>
</g>
<defs>
<clipPath id="clip0_14253_2584">
<rect width="96" height="26" fill="white"/>
</clipPath>
</defs>
</svg>
