<svg width="188" height="26" viewBox="0 0 188 26" fill="none" xmlns="http://www.w3.org/2000/svg">
<path d="M24.4538 6.21398L16.0815 7.27713C15.484 7.353 15.0361 7.86134 15.0361 8.46364V17.0433C15.0361 17.6421 15.4789 18.1486 16.0723 18.2286L24.4446 19.3582C25.1622 19.455 25.8005 18.897 25.8005 18.1729V7.4005C25.8005 6.68014 25.1684 6.12323 24.4538 6.21398Z" fill="#161616"/>
<path d="M19.1924 0.300102L0.995449 3.39585C0.420557 3.49365 0 3.9918 0 4.57495V21.5088C0 22.0974 0.428303 22.5986 1.00976 22.6902L19.2067 25.5595C19.9326 25.6739 20.589 25.1129 20.589 24.378V20.6942C20.589 20.523 20.4624 20.3782 20.2927 20.3555L14.6207 19.5946C14.0269 19.5149 13.5836 19.0083 13.5836 18.4092V12.92V7.39359C13.5836 6.8107 14.0038 6.3127 14.5784 6.21461L20.3048 5.23692C20.469 5.2089 20.589 5.06661 20.589 4.90007V1.4792C20.589 0.738493 19.9226 0.175874 19.1924 0.300102Z" fill="#1252D3"/>
<path d="M6.97391 13.734V12.6257H10.6414C10.6835 12.8516 10.7037 13.0811 10.7019 13.3109C10.7019 14.1169 10.4802 15.1446 9.75477 15.8499C9.04948 16.5955 8.16283 16.9784 6.95376 16.9784C4.75729 16.9784 2.90338 15.1849 2.90338 12.9884C2.90338 10.792 4.75729 8.97837 6.95376 8.97837C8.18298 8.97837 9.04948 9.46199 9.71446 10.0867L8.92857 10.8524C8.51921 10.4617 8.00319 10.2012 7.44578 10.1038C6.88836 10.0063 6.31456 10.0763 5.79692 10.3049C5.27929 10.5336 4.84106 10.9105 4.53765 11.3882C4.23423 11.8658 4.07925 12.4227 4.0923 12.9884C4.0923 14.6005 5.36182 15.8902 6.95376 15.8902C8.00162 15.8902 8.60615 15.467 8.98902 15.0842C9.29129 14.7819 9.4928 14.3386 9.57341 13.734H6.97391Z" fill="white"/>
<path d="M21.4546 14.8262H20.6444L20.4158 14.0905H19.0936L18.85 14.8262H18.0647L19.3421 11.2474H20.1871L21.4546 14.8262ZM19.7597 12.0675L19.2974 13.4742H20.207L19.7597 12.0675ZM21.8457 11.2474H22.5913V14.8262H21.8457V11.2474Z" fill="white"/>
<path d="M112.721 6.52344H114.556L110.885 20.195H109.088L106.158 11.1718H106.08L103.111 20.195H101.315L97.5256 6.52344H99.3615L102.252 17.2654H102.33L105.299 8.35934H106.939L109.908 17.2654H109.986L112.721 6.52344Z" fill="#1F1F1F"/>
<mask id="mask0_14190_338" style="mask-type:luminance" maskUnits="userSpaceOnUse" x="31" y="5" width="157" height="20">
<path d="M31.1973 5H187.291V25H31.1973V5Z" fill="white"/>
</mask>
<g mask="url(#mask0_14190_338)">
<path d="M114.362 15.5076C114.362 14.0754 114.817 12.8905 115.729 11.953C116.64 11.0155 117.799 10.5468 119.205 10.5468C120.611 10.5468 121.757 11.0155 122.643 11.953C123.554 12.8905 124.01 14.0754 124.01 15.5076C124.01 16.9659 123.554 18.1638 122.643 19.1013C121.731 20.0388 120.585 20.5075 119.205 20.5075C117.825 20.5075 116.666 20.0388 115.729 19.1013C114.817 18.1638 114.362 16.9659 114.362 15.5076ZM116.119 15.5076C116.119 16.5232 116.419 17.3435 117.018 17.9685C117.617 18.5935 118.346 18.906 119.205 18.906C120.065 18.906 120.794 18.5935 121.393 17.9685C121.992 17.3435 122.278 16.5232 122.252 15.5076C122.252 14.5181 121.966 13.7108 121.393 13.0858C120.794 12.4608 120.065 12.1483 119.205 12.1483C118.346 12.1483 117.617 12.4608 117.018 13.0858C116.419 13.7108 116.119 14.5181 116.119 15.5076ZM127.017 20.195H125.26V10.8202H126.939V12.3827H127.017C127.2 11.8619 127.577 11.4322 128.15 11.0937C128.723 10.7551 129.27 10.5728 129.791 10.5468C130.286 10.5468 130.715 10.6249 131.08 10.7812L130.533 12.4999C130.325 12.4217 129.986 12.3827 129.517 12.3827C128.84 12.3827 128.254 12.6431 127.76 13.1639C127.265 13.6847 127.017 14.3097 127.017 15.0389V20.195ZM140.142 20.195H137.994L135.103 15.7811L133.658 17.2263V20.195H131.9V6.52344H133.658V14.9608L137.72 10.8202H139.947V10.8983L136.314 14.5311L140.142 20.1169V20.195Z" fill="#1F1F1F"/>
<path d="M147.76 17.6172C147.76 18.4245 147.408 19.1146 146.705 19.6875C146.002 20.2604 145.091 20.5339 143.971 20.5078C143.033 20.5078 142.213 20.2604 141.51 19.7656C140.818 19.2993 140.286 18.631 139.986 17.8516L141.549 17.1875C141.783 17.7344 142.109 18.1641 142.526 18.4766C142.945 18.7838 143.451 18.9481 143.971 18.9453C144.544 18.9453 145.013 18.8281 145.377 18.5938C145.742 18.3594 145.937 18.0729 145.963 17.7344C145.963 17.1354 145.507 16.6927 144.596 16.4063L142.955 16.0156C141.132 15.5469 140.221 14.6615 140.221 13.3594C140.221 12.5 140.572 11.8099 141.276 11.2891C141.979 10.7682 142.864 10.5078 143.932 10.5078C144.765 10.5078 145.52 10.7161 146.197 11.1328C146.875 11.5495 147.343 12.0703 147.604 12.6953L146.041 13.3594C145.865 12.9614 145.563 12.6321 145.182 12.4219C144.761 12.2006 144.29 12.0929 143.815 12.1094C143.376 12.0904 142.942 12.1989 142.565 12.4219C142.2 12.6563 142.018 12.9427 142.018 13.2813C142.018 13.8281 142.526 14.2057 143.541 14.4141L144.947 14.8047C146.822 15.2474 147.76 16.1849 147.76 17.6172ZM153.854 20.5078C153.177 20.5078 152.552 20.3646 151.979 20.0781C151.406 19.7917 150.976 19.401 150.69 18.9063H150.611L150.69 20.1953V24.3359H148.932V10.8203H150.611V12.1484H150.69C150.976 11.6536 151.406 11.263 151.979 10.9766C152.552 10.6901 153.19 10.5469 153.893 10.5469C155.117 10.5469 156.158 11.0286 157.018 11.9922C157.903 12.9557 158.346 14.1276 158.346 15.5078C158.346 16.9141 157.903 18.099 157.018 19.0625C156.158 20.026 155.117 20.5078 153.893 20.5078M153.58 18.9063C154.44 18.9063 155.156 18.5938 155.729 17.9688C156.302 17.3438 156.588 16.5234 156.588 15.5078C156.588 14.5443 156.302 13.737 155.729 13.0859C155.156 12.4349 154.44 12.1224 153.58 12.1484C152.721 12.1484 152.005 12.4609 151.432 13.0859C150.885 13.737 150.611 14.5443 150.611 15.5078C150.611 16.5234 150.885 17.3438 151.432 17.9688C152.005 18.5938 152.721 18.9063 153.58 18.9063ZM163.151 10.5469C164.453 10.5469 165.481 10.8854 166.236 11.5625C166.992 12.2396 167.369 13.1901 167.369 14.4141V20.1953H165.69V18.9063H165.611C164.882 19.974 163.906 20.5078 162.682 20.5078C161.666 20.5078 160.807 20.2083 160.104 19.6094C159.401 19.0104 159.049 18.2422 159.049 17.3047C159.049 16.3411 159.414 15.5729 160.143 15C160.872 14.4271 161.861 14.1406 163.111 14.1406C164.153 14.1406 165.013 14.3229 165.69 14.6875V14.2969C165.69 13.6719 165.442 13.151 164.947 12.7344C164.484 12.3256 163.886 12.103 163.268 12.1094C162.278 12.1094 161.497 12.526 160.924 13.3594L159.361 12.3828C160.221 11.1589 161.484 10.5469 163.151 10.5469ZM160.885 17.3438C160.885 17.8125 161.08 18.1901 161.471 18.4766C161.861 18.763 162.317 18.9193 162.838 18.9453C163.567 18.9453 164.218 18.6719 164.791 18.125C165.364 17.5781 165.664 16.9401 165.69 16.2109C165.143 15.7682 164.375 15.5469 163.385 15.5469C162.682 15.5469 162.083 15.7161 161.588 16.0547C161.093 16.3932 160.859 16.8229 160.885 17.3438ZM173.346 20.5078C171.94 20.5078 170.781 20.0391 169.869 19.1016C168.958 18.138 168.502 16.9401 168.502 15.5078C168.502 14.0755 168.958 12.8906 169.869 11.9531C170.781 11.0156 171.94 10.5469 173.346 10.5469C174.309 10.5469 175.143 10.7813 175.846 11.25C176.549 11.7188 177.083 12.3828 177.447 13.2422L175.846 13.9063C175.351 12.7344 174.479 12.1484 173.229 12.1484C172.421 12.1484 171.718 12.474 171.119 13.125C170.546 13.776 170.26 14.5703 170.26 15.5078C170.26 16.4453 170.546 17.2526 171.119 17.9297C171.718 18.5807 172.421 18.9063 173.229 18.9063C174.505 18.9063 175.403 18.3203 175.924 17.1484L177.526 17.8125C177.161 18.6719 176.614 19.3359 175.885 19.8047C175.156 20.2734 174.309 20.5078 173.346 20.5078ZM182.799 20.5078C181.419 20.5078 180.286 20.0391 179.401 19.1016C178.515 18.1641 178.072 16.9661 178.072 15.5078C178.072 14.1016 178.502 12.9167 179.361 11.9531C180.221 10.9896 181.328 10.5208 182.682 10.5469C184.088 10.5469 185.195 10.9896 186.002 11.875C186.809 12.7604 187.226 14.0234 187.252 15.6641V15.8594H179.869C179.895 16.7708 180.195 17.513 180.768 18.0859C181.341 18.6589 182.044 18.9323 182.877 18.9063C183.997 18.9063 184.882 18.3464 185.533 17.2266L187.096 18.0078C186.69 18.77 186.082 19.4053 185.338 19.8438C184.609 20.2865 183.763 20.5078 182.799 20.5078ZM179.986 14.375H185.377C185.325 13.724 185.065 13.1901 184.596 12.7734C184.127 12.3568 183.476 12.1484 182.643 12.1484C181.992 12.1484 181.432 12.3438 180.963 12.7344C180.494 13.125 180.169 13.6719 179.986 14.375Z" fill="#1F1F1F"/>
</g>
<mask id="mask1_14190_338" style="mask-type:luminance" maskUnits="userSpaceOnUse" x="31" y="5" width="157" height="20">
<path d="M31.1973 5H187.291V25H31.1973V5Z" fill="white"/>
</mask>
<g mask="url(#mask1_14190_338)">
<path d="M39.0877 14.2186V12.0702H46.1969C46.2784 12.5081 46.3177 12.9528 46.3141 13.3983C46.3141 14.9607 45.8844 16.9529 44.4782 18.32C43.1111 19.7653 41.3923 20.5075 39.0486 20.5075C34.7909 20.5075 31.1973 17.031 31.1973 12.7733C31.1973 8.51555 34.7909 5 39.0486 5C41.4314 5 43.1111 5.93748 44.4001 7.14839L42.8767 8.63274C42.0832 7.87542 41.0829 7.37039 40.0024 7.18149C38.9219 6.99259 37.8096 7.1283 36.8062 7.57147C35.8028 8.01464 34.9533 8.74536 34.3652 9.67126C33.777 10.5972 33.4766 11.6767 33.5019 12.7733C33.5019 15.8982 35.9628 18.3982 39.0486 18.3982C41.0799 18.3982 42.2517 17.5779 42.9939 16.8357C43.5798 16.2498 43.9704 15.3904 44.1267 14.2186H39.0877Z" fill="#1F1F1F"/>
<path d="M57.1347 15.5077C57.1347 18.3983 54.8691 20.5076 52.0957 20.5076C49.3224 20.5076 47.0959 18.3983 47.0959 15.5077C47.0959 12.6171 49.3614 10.5078 52.0957 10.5078C54.8301 10.5078 57.1347 12.6171 57.1347 15.5077ZM54.9082 15.5077C54.9082 13.7109 53.6192 12.5 52.0957 12.5C50.5723 12.5 49.2833 13.7109 49.2833 15.5077C49.2833 17.3045 50.6114 18.5545 52.0957 18.5545C53.5801 18.5545 54.9082 17.3045 54.9082 15.5077Z" fill="#1F1F1F"/>
<path d="M68.0722 15.5077C68.0722 18.3983 65.8067 20.5076 63.0333 20.5076C60.2599 20.5076 58.0334 18.3983 58.0334 15.5077C58.0334 12.6171 60.299 10.5078 63.0333 10.5078C65.7676 10.5078 68.0722 12.6171 68.0722 15.5077ZM65.8457 15.5077C65.8457 13.7109 64.5567 12.5 63.0333 12.5C61.5099 12.5 60.2208 13.7109 60.2208 15.5077C60.2208 17.3045 61.5489 18.5545 63.0333 18.5545C64.5176 18.5545 65.8457 17.3045 65.8457 15.5077Z" fill="#1F1F1F"/>
<path d="M78.541 10.8203V19.8045C78.541 23.4763 76.3535 24.9997 73.7755 24.9997C71.3536 24.9997 69.9084 23.3591 69.3615 22.031L71.2755 21.2498C71.6271 22.0701 72.4474 23.0466 73.7755 23.0466C75.4551 23.0466 76.4707 21.9919 76.4707 20.117V19.3748H76.3926C76.0602 19.7471 75.6499 20.0416 75.1908 20.2374C74.7317 20.4331 74.2352 20.5254 73.7364 20.5076C71.2755 20.5076 68.9709 18.3201 68.9709 15.5468C68.9709 12.7343 71.2755 10.5078 73.7364 10.5078C74.9473 10.5078 75.8848 11.0547 76.3926 11.6406H76.4707V10.8203H78.541ZM76.627 15.5468C76.627 13.789 75.4551 12.5 73.9317 12.5C72.4474 12.5 71.1583 13.789 71.1583 15.5468C71.1583 17.2655 72.4474 18.5545 73.9317 18.5545C75.4551 18.5545 76.627 17.2655 76.627 15.5468Z" fill="#1F1F1F"/>
<path d="M80.0646 5.58594H82.2521V20.2341H80.0646V5.58594Z" fill="#1F1F1F"/>
<path d="M90.7285 17.1483L92.4473 18.3201C91.9004 19.1014 90.5723 20.5076 88.2677 20.5076C85.4162 20.5076 83.3068 18.3201 83.3068 15.5077C83.3068 12.539 85.4552 10.5078 88.0333 10.5078C90.6114 10.5078 91.9004 12.5781 92.291 13.7109L92.5254 14.2577L85.8458 17.0311C86.3536 18.0467 87.1349 18.5545 88.2677 18.5545C89.4004 18.5545 90.1426 18.0077 90.7285 17.1483ZM85.4943 15.3515L89.9473 13.5156C89.7129 12.8906 88.9708 12.4609 88.1114 12.4609C86.9786 12.4609 85.4162 13.4374 85.4943 15.3515Z" fill="#1F1F1F"/>
</g>
</svg>
