<svg width="579" height="80" viewBox="0 0 579 80" fill="none" xmlns="http://www.w3.org/2000/svg">
<path d="M75.2424 19.1199L49.4815 22.3912C47.643 22.6246 46.265 24.1887 46.265 26.042V52.441C46.265 54.2833 47.6273 55.8418 49.453 56.0881L75.2139 59.5638C77.422 59.8617 79.3861 58.1447 79.3861 55.9167V22.7708C79.3861 20.5543 77.4412 18.8407 75.2424 19.1199Z" fill="white"/>
<path d="M59.0535 0.922978L3.06292 10.4483C1.29402 10.7493 0 12.282 0 14.0764V66.1805C0 67.9917 1.31786 69.5336 3.10695 69.8157L59.0975 78.6441C61.331 78.9963 63.3509 77.2699 63.3509 75.0089V63.674C63.3509 63.1473 62.9612 62.7019 62.4392 62.6319L44.9866 60.2907C43.1596 60.0456 41.7958 58.4866 41.7958 56.6432V39.7533V22.7491C41.7958 20.9556 43.0887 19.4233 44.8566 19.1215L62.4764 16.1132C62.9815 16.027 63.3509 15.5892 63.3509 15.0767V4.55098C63.3509 2.27187 61.3003 0.540737 59.0535 0.922978Z" fill="#1252D3"/>
<path d="M21.4582 42.2593V38.8491H32.7428C32.8722 39.5442 32.9345 40.2502 32.9288 40.9572C32.9288 43.4374 32.2468 46.5995 30.0147 48.7697C27.8445 51.0638 25.1164 52.2418 21.3962 52.2418C14.6378 52.2418 8.93347 46.7235 8.93347 39.9652C8.93347 33.2068 14.6378 27.6265 21.3962 27.6265C25.1784 27.6265 27.8445 29.1145 29.8906 31.0367L27.4725 33.3928C26.2129 32.1907 24.6252 31.389 22.9101 31.0892C21.1949 30.7893 19.4294 31.0048 17.8367 31.7082C16.244 32.4117 14.8956 33.5716 13.962 35.0413C13.0284 36.511 12.5515 38.2245 12.5917 39.9652C12.5917 44.9254 16.4979 48.8937 21.3962 48.8937C24.6204 48.8937 26.4805 47.5916 27.6585 46.4135C28.5886 45.4835 29.2086 44.1194 29.4566 42.2593H21.4582Z" fill="white"/>
<path d="M66.0142 45.311H63.5213L62.8178 43.0475H58.7495L58.0001 45.311H55.5837L59.5142 34.2993H62.1142L66.0142 45.311ZM60.799 36.8228L59.3766 41.1511H62.1754L60.799 36.8228ZM67.2176 34.2993H69.5117V45.311H67.2176V34.2993Z" fill="#161616"/>
<path d="M346.832 20.0723H352.481L341.184 62.1387H335.655L326.641 34.3748H326.4L317.266 62.1387H311.737L300.079 20.0723H305.728L314.622 53.1244H314.862L323.996 25.7212H329.044L338.179 53.1244H338.419L346.832 20.0723Z" fill="white"/>
<mask id="mask0_14223_46230" style="mask-type:luminance" maskUnits="userSpaceOnUse" x="95" y="15" width="482" height="62">
<path d="M95.9915 15.3848H576.28V76.9232H95.9915V15.3848Z" fill="white"/>
</mask>
<g mask="url(#mask0_14223_46230)">
<path d="M351.882 47.7159C351.882 43.3089 353.284 39.6632 356.088 36.7786C358.893 33.8941 362.458 32.4518 366.785 32.4518C371.112 32.4518 374.637 33.8941 377.362 36.7786C380.166 39.6632 381.568 43.3089 381.568 47.7159C381.568 52.203 380.166 55.8888 377.362 58.7734C374.557 61.6579 371.032 63.1002 366.785 63.1002C362.538 63.1002 358.973 61.6579 356.088 58.7734C353.284 55.8888 351.882 52.203 351.882 47.7159ZM357.29 47.7159C357.29 50.8408 358.212 53.3648 360.054 55.2879C361.897 57.2109 364.141 58.1724 366.785 58.1724C369.429 58.1724 371.673 57.2109 373.516 55.2879C375.359 53.3648 376.24 50.8408 376.16 47.7159C376.16 44.6711 375.278 42.1872 373.516 40.2641C371.673 38.3411 369.429 37.3796 366.785 37.3796C364.141 37.3796 361.897 38.3411 360.054 40.2641C358.212 42.1872 357.29 44.6711 357.29 47.7159ZM390.823 62.1387H385.414V33.2931H390.583V38.1007H390.823C391.384 36.4982 392.546 35.1761 394.309 34.1345C396.071 33.0928 397.754 32.5319 399.356 32.4518C400.879 32.4518 402.201 32.6922 403.323 33.1729L401.64 38.4613C400.999 38.2209 399.957 38.1007 398.515 38.1007C396.432 38.1007 394.629 38.902 393.107 40.5045C391.584 42.1071 390.823 44.0301 390.823 46.2736V62.1387ZM431.207 62.1387H424.596L415.702 48.5572L411.255 53.0043V62.1387H405.847V20.0723H411.255V46.0332L423.755 33.2931H430.606V33.5335L419.428 44.7112L431.207 61.8983V62.1387Z" fill="white"/>
<path d="M454.646 54.207C454.646 56.691 453.564 58.8144 451.4 60.5772C449.237 62.34 446.433 63.1814 442.987 63.1013C440.102 63.1013 437.578 62.34 435.415 60.8176C433.284 59.3827 431.648 57.3263 430.727 54.9282L435.535 52.8849C436.256 54.5676 437.258 55.8897 438.54 56.8513C439.829 57.7966 441.388 58.3023 442.987 58.2936C444.75 58.2936 446.192 57.933 447.314 57.2118C448.436 56.4907 449.037 55.6093 449.117 54.5676C449.117 52.7247 447.715 51.3625 444.91 50.4811L439.862 49.2791C434.253 47.8368 431.449 45.1125 431.449 41.1061C431.449 38.4618 432.53 36.3384 434.694 34.7359C436.857 33.1333 439.582 32.332 442.867 32.332C445.431 32.332 447.755 32.9731 449.838 34.2551C451.921 35.5372 453.364 37.1397 454.165 39.0628L449.357 41.1061C448.815 39.8815 447.886 38.8683 446.713 38.2215C445.418 37.5407 443.968 37.2093 442.506 37.2599C441.158 37.2014 439.822 37.5355 438.66 38.2215C437.538 38.9426 436.977 39.824 436.977 40.8657C436.977 42.5484 438.54 43.7102 441.665 44.3513L445.992 45.5532C451.761 46.9154 454.646 49.8 454.646 54.207ZM473.396 63.1013C471.312 63.1013 469.389 62.6606 467.626 61.7792C465.864 60.8977 464.542 59.6958 463.66 58.1734H463.42L463.66 62.1397V74.8801H458.251V33.2936H463.42V37.3801H463.66C464.542 35.8577 465.864 34.6557 467.626 33.7743C469.389 32.8929 471.352 32.4522 473.516 32.4522C477.282 32.4522 480.487 33.9346 483.131 36.8993C485.856 39.8641 487.218 43.4699 487.218 47.7166C487.218 52.0436 485.856 55.6894 483.131 58.6542C480.487 61.6189 477.282 63.1013 473.516 63.1013M472.554 58.1734C475.199 58.1734 477.402 57.2118 479.165 55.2888C480.928 53.3657 481.809 50.8416 481.809 47.7166C481.809 44.7519 480.928 42.2679 479.165 40.2647C477.402 38.2615 475.199 37.3 472.554 37.3801C469.91 37.3801 467.707 38.3416 465.944 40.2647C464.261 42.2679 463.42 44.7519 463.42 47.7166C463.42 50.8416 464.261 53.3657 465.944 55.2888C467.707 57.2118 469.91 58.1734 472.554 58.1734ZM502.001 32.4522C506.008 32.4522 509.173 33.4939 511.497 35.5772C513.82 37.6606 514.982 40.5852 514.982 44.3513V62.1397H509.814V58.1734H509.574C507.33 61.4586 504.325 63.1013 500.559 63.1013C497.434 63.1013 494.79 62.1798 492.626 60.3368C490.463 58.4939 489.381 56.1301 489.381 53.2455C489.381 50.2808 490.503 47.917 492.747 46.1541C494.99 44.3913 498.035 43.5099 501.881 43.5099C505.086 43.5099 507.731 44.0708 509.814 45.1926V43.9907C509.814 42.0676 509.053 40.465 507.53 39.183C506.104 37.9253 504.263 37.2402 502.362 37.2599C499.317 37.2599 496.913 38.542 495.15 41.1061L490.343 38.1013C492.987 34.3352 496.873 32.4522 502.001 32.4522ZM495.03 53.3657C495.03 54.808 495.631 55.9699 496.833 56.8513C498.035 57.7327 499.437 58.2134 501.04 58.2936C503.284 58.2936 505.287 57.4522 507.05 55.7695C508.812 54.0868 509.734 52.1237 509.814 49.8801C508.131 48.5179 505.767 47.8368 502.723 47.8368C500.559 47.8368 498.716 48.3577 497.194 49.3993C495.671 50.441 494.95 51.7631 495.03 53.3657ZM533.372 63.1013C529.045 63.1013 525.479 61.659 522.675 58.7743C519.87 55.8096 518.468 52.1237 518.468 47.7166C518.468 43.3096 519.87 39.6638 522.675 36.7791C525.479 33.8945 529.045 32.4522 533.372 32.4522C536.336 32.4522 538.9 33.1734 541.064 34.6157C543.227 36.058 544.87 38.1013 545.992 40.7455L541.064 42.7888C539.542 39.183 536.857 37.3801 533.011 37.3801C530.527 37.3801 528.364 38.3817 526.521 40.3849C524.758 42.3881 523.876 44.832 523.876 47.7166C523.876 50.6013 524.758 53.0852 526.521 55.1686C528.364 57.1718 530.527 58.1734 533.011 58.1734C536.937 58.1734 539.702 56.3705 541.304 52.7647L546.232 54.808C545.11 57.4522 543.428 59.4955 541.184 60.9378C538.941 62.3801 536.336 63.1013 533.372 63.1013ZM562.458 63.1013C558.211 63.1013 554.726 61.659 552.001 58.7743C549.277 55.8897 547.915 52.2038 547.915 47.7166C547.915 43.3897 549.237 39.7439 551.881 36.7791C554.525 33.8144 557.931 32.3721 562.098 32.4522C566.425 32.4522 569.83 33.8144 572.314 36.5388C574.798 39.2631 576.08 43.1493 576.16 48.1974V48.7984H553.444C553.524 51.6029 554.445 53.8865 556.208 55.6493C557.971 57.4122 560.134 58.2535 562.699 58.1734C566.144 58.1734 568.868 56.4506 570.872 53.0051L575.679 55.409C574.431 57.7542 572.559 59.709 570.271 61.058C568.027 62.4202 565.423 63.1013 562.458 63.1013ZM553.804 44.2311H570.391C570.231 42.2279 569.429 40.5852 567.987 39.3032C566.545 38.0211 564.542 37.3801 561.977 37.3801C559.974 37.3801 558.251 37.9811 556.809 39.183C555.367 40.3849 554.365 42.0676 553.804 44.2311Z" fill="white"/>
</g>
<mask id="mask1_14223_46230" style="mask-type:luminance" maskUnits="userSpaceOnUse" x="95" y="15" width="482" height="62">
<path d="M95.9915 15.3848H576.28V76.9232H95.9915V15.3848Z" fill="white"/>
</mask>
<g mask="url(#mask1_14223_46230)">
<path d="M120.27 43.7495V37.1391H142.144C142.395 38.4866 142.516 39.855 142.505 41.2256C142.505 46.0332 141.183 52.1628 136.856 56.3695C132.649 60.8165 127.361 63.1001 120.15 63.1001C107.049 63.1001 95.9915 52.4032 95.9915 39.3025C95.9915 26.2018 107.049 15.3848 120.15 15.3848C127.481 15.3848 132.649 18.2693 136.616 21.9952L131.928 26.5624C129.487 24.2322 126.409 22.6783 123.084 22.097C119.76 21.5158 116.337 21.9334 113.25 23.297C110.162 24.6606 107.549 26.909 105.739 29.7579C103.929 32.6068 103.005 35.9283 103.083 39.3025C103.083 48.9177 110.655 56.6099 120.15 56.6099C126.4 56.6099 130.005 54.0859 132.289 51.8023C134.092 49.9994 135.294 47.3552 135.774 43.7495H120.27Z" fill="white"/>
<path d="M175.799 47.7163C175.799 56.6104 168.828 63.1006 160.295 63.1006C151.761 63.1006 144.91 56.6104 144.91 47.7163C144.91 38.8223 151.881 32.332 160.295 32.332C168.708 32.332 175.799 38.8223 175.799 47.7163ZM168.948 47.7163C168.948 42.1876 164.982 38.4617 160.295 38.4617C155.607 38.4617 151.641 42.1876 151.641 47.7163C151.641 53.245 155.727 57.0911 160.295 57.0911C164.862 57.0911 168.948 53.245 168.948 47.7163Z" fill="white"/>
<path d="M209.453 47.7163C209.453 56.6104 202.482 63.1006 193.948 63.1006C185.415 63.1006 178.564 56.6104 178.564 47.7163C178.564 38.8223 185.535 32.332 193.948 32.332C202.362 32.332 209.453 38.8223 209.453 47.7163ZM202.602 47.7163C202.602 42.1876 198.636 38.4617 193.948 38.4617C189.261 38.4617 185.295 42.1876 185.295 47.7163C185.295 53.245 189.381 57.0911 193.948 57.0911C198.516 57.0911 202.602 53.245 202.602 47.7163Z" fill="white"/>
<path d="M241.665 33.2935V60.9372C241.665 72.235 234.934 76.9224 227.001 76.9224C219.55 76.9224 215.103 71.8745 213.42 67.788L219.309 65.3842C220.391 67.9082 222.915 70.9129 227.001 70.9129C232.17 70.9129 235.295 67.6678 235.295 61.8987V59.6151H235.054C234.031 60.7606 232.769 61.6667 231.356 62.2691C229.944 62.8715 228.416 63.1554 226.881 63.1006C219.309 63.1006 212.218 56.37 212.218 47.8365C212.218 39.1828 219.309 32.332 226.881 32.332C230.607 32.332 233.492 34.0147 235.054 35.8175H235.295V33.2935H241.665ZM235.775 47.8365C235.775 42.428 232.17 38.4617 227.482 38.4617C222.915 38.4617 218.949 42.428 218.949 47.8365C218.949 53.1249 222.915 57.0911 227.482 57.0911C232.17 57.0911 235.775 53.1249 235.775 47.8365Z" fill="white"/>
<path d="M246.353 17.1875H253.083V62.2587H246.353V17.1875Z" fill="white"/>
<path d="M279.165 52.7643L284.453 56.37C282.77 58.7738 278.684 63.1006 271.593 63.1006C262.819 63.1006 256.329 56.37 256.329 47.7163C256.329 38.5819 262.939 32.332 270.872 32.332C278.804 32.332 282.77 38.7021 283.972 42.1876L284.693 43.8702L264.141 52.4037C265.703 55.5287 268.107 57.0911 271.593 57.0911C275.078 57.0911 277.362 55.4085 279.165 52.7643ZM263.059 47.2356L276.761 41.5866C276.04 39.6636 273.756 38.3415 271.112 38.3415C267.626 38.3415 262.819 41.3463 263.059 47.2356Z" fill="white"/>
</g>
</svg>
