<svg width="80" height="80" viewBox="0 0 80 80" fill="none" xmlns="http://www.w3.org/2000/svg">
<g clip-path="url(#clip0_14223_46188)">
<g clip-path="url(#clip1_14223_46188)">
<mask id="mask0_14223_46188" style="mask-type:luminance" maskUnits="userSpaceOnUse" x="0" y="0" width="80" height="80">
<path d="M80 0H0V80H80V0Z" fill="white"/>
</mask>
<g mask="url(#mask0_14223_46188)">
<path d="M61.6666 76.6668H18.3333C15.5708 76.6668 13.3333 74.4293 13.3333 71.6668V8.3335C13.3333 5.571 15.5708 3.3335 18.3333 3.3335H48.3333L66.6666 21.6668V71.6668C66.6666 74.4293 64.4291 76.6668 61.6666 76.6668Z" fill="#FFBA00"/>
<path d="M48.3333 3.3335L66.6666 21.6668H48.3333V3.3335Z" fill="#FF9500"/>
<path d="M52.5 31.6665H27.5H23.3333V35.8332V49.9998V54.1665H27.5H52.5H56.6666V49.9998V35.8332V31.6665H52.5ZM52.5 49.9998H27.5V35.8332H52.5V49.9998Z" fill="white"/>
</g>
</g>
</g>
<defs>
<clipPath id="clip0_14223_46188">
<rect width="80" height="80" fill="white"/>
</clipPath>
<clipPath id="clip1_14223_46188">
<rect width="80" height="80" fill="white"/>
</clipPath>
</defs>
</svg>
